# xmcd CD database file
#
# Track frame offsets:
#	150
#	20762
#	35467
#	49300
#	64642
#	73987
#	100287
#	121037
#	149770
#	162512
#	175267
#	206205
#
# Disc length: 3003 seconds
#
# Revision: 3
# Processed by: cddbd v1.5.1PL0 Copyright (c) Steve Scherf et al.
# Submitted via: CDex 1.51
#
DISCID=bb0bb90c
DTITLE=喜多郎 - BEST
DYEAR=1987
DGENRE=New Age
TTITLE0=BEST
TTITLE1=光と影
TTITLE2=西に向かって
TTITLE3=時の流れ
TTITLE4=菩薩
TTITLE5=永遠の路
TTITLE6=絲綢之路
TTITLE7=朝の祈り
TTITLE8=モロリズム
TTITLE9=新たなる旅路
TTITLE10=知(ち)
TTITLE11=流(る)
EXTD=YEAR: 1987
EXTT0=
EXTT1=
EXTT2=
EXTT3=
EXTT4=
EXTT5=
EXTT6=
EXTT7=
EXTT8=
EXTT9=
EXTT10=
EXTT11=
PLAYORDER=
